<svg viewBox="0 0 600 400" xmlns="http://www.w3.org/2000/svg">
<g transform="translate(72, 364)">
<g>
<g>
<circle cx="0" cy="-0" fill="#DD3355" r="3"/>
<circle cx="0" cy="-807.5" fill="#DD3355" r="3"/>
<circle cx="48" cy="-237.32" fill="#DD3355" r="3"/>
<circle cx="96" cy="-166.26" fill="#DD3355" r="3"/>
<circle cx="144" cy="-154.36" fill="#DD3355" r="3"/>
<circle cx="192" cy="-237.32" fill="#DD3355" r="3"/>
<circle cx="240" cy="-166.26" fill="#DD3355" r="3"/>
<circle cx="288" cy="-237.49" fill="#DD3355" r="3"/>
<circle cx="336" cy="-237.49" fill="#DD3355" r="3"/>
<circle cx="384" cy="-237.49" fill="#DD3355" r="3"/>
<circle cx="432" cy="-249.39" fill="#DD3355" r="3"/>
</g>
</g>
<g>
<g>
<circle cx="0" cy="-0" fill="#0000ff" r="3"/>
<circle cx="0" cy="-154.36" fill="#0000ff" r="3"/>
<circle cx="48" cy="-154.36" fill="#0000ff" r="3"/>
<circle cx="96" cy="-154.36" fill="#0000ff" r="3"/>
<circle cx="144" cy="-166.26" fill="#0000ff" r="3"/>
<circle cx="192" cy="-166.26" fill="#0000ff" r="3"/>
<circle cx="240" cy="-166.26" fill="#0000ff" r="3"/>
<circle cx="288" cy="-166.26" fill="#0000ff" r="3"/>
<circle cx="336" cy="-154.36" fill="#0000ff" r="3"/>
<circle cx="384" cy="-154.36" fill="#0000ff" r="3"/>
<circle cx="432" cy="-166.26" fill="#0000ff" r="3"/>
</g>
</g>
<g>
<g>
<line stroke="black" stroke-width="1" x1="0" x2="0" y1="0" y2="10"/>
<line stroke="black" stroke-width="1" x1="96" x2="96" y1="0" y2="10"/>
<line stroke="black" stroke-width="1" x1="192" x2="192" y1="0" y2="10"/>
<line stroke="black" stroke-width="1" x1="288" x2="288" y1="0" y2="10"/>
<line stroke="black" stroke-width="1" x1="384" x2="384" y1="0" y2="10"/>
<line stroke="black" stroke-width="1" x1="480" x2="480" y1="0" y2="10"/>
</g>
<line stroke="black" stroke-width="1" x1="0" x2="480" y1="0" y2="0"/>
<g>
<text font-size="12" text-anchor="middle" x="0" y="20">
0
</text>
<text font-size="12" text-anchor="middle" x="96" y="20">
2
</text>
<text font-size="12" text-anchor="middle" x="192" y="20">
4
</text>
<text font-size="12" text-anchor="middle" x="288" y="20">
6
</text>
<text font-size="12" text-anchor="middle" x="384" y="20">
8
</text>
<text font-size="12" text-anchor="middle" x="480" y="20">
10
</text>
</g>
<text font-size="12" text-anchor="middle" x="240" y="30">
times
</text>
</g>
<g>
<g>
<line stroke="black" stroke-width="1" x1="0" x2="-10" y1="-0" y2="-0"/>
<line stroke="black" stroke-width="1" x1="0" x2="-10" y1="-68" y2="-68"/>
<line stroke="black" stroke-width="1" x1="0" x2="-10" y1="-136" y2="-136"/>
<line stroke="black" stroke-width="1" x1="0" x2="-10" y1="-204" y2="-204"/>
<line stroke="black" stroke-width="1" x1="0" x2="-10" y1="-272" y2="-272"/>
<line stroke="black" stroke-width="1" x1="0" x2="-10" y1="-340" y2="-340"/>
</g>
<line stroke="black" stroke-width="1" x1="0" x2="0" y1="0" y2="-340"/>
<g>
<text dominant-baseline="middle" font-size="12" text-anchor="end" x="-15" y="-0">
0
</text>
<text dominant-baseline="middle" font-size="12" text-anchor="end" x="-15" y="-68">
400
</text>
<text dominant-baseline="middle" font-size="12" text-anchor="end" x="-15" y="-136">
800
</text>
<text dominant-baseline="middle" font-size="12" text-anchor="end" x="-15" y="-204">
1200
</text>
<text dominant-baseline="middle" font-size="12" text-anchor="end" x="-15" y="-272">
1600
</text>
<text dominant-baseline="middle" font-size="12" text-anchor="end" x="-15" y="-340">
2000
</text>
</g>
<text font-size="12" text-anchor="middle" transform="rotate(-90 -48 -170)" x="-48" y="-182">
secs(nano)
</text>
</g>
</g>
</svg>