<svg viewBox="0 0 600 400" xmlns="http://www.w3.org/2000/svg">
<g transform="translate(72, 364)">
<g>
<g>
<circle cx="0" cy="-0" fill="#DD3355" r="3"/>
<circle cx="0" cy="-130.1962" fill="#DD3355" r="3"/>
<circle cx="4.8" cy="-102.30940000000001" fill="#DD3355" r="3"/>
<circle cx="9.6" cy="-101.9796" fill="#DD3355" r="3"/>
<circle cx="14.4" cy="-102.2278" fill="#DD3355" r="3"/>
<circle cx="19.2" cy="-102.017" fill="#DD3355" r="3"/>
<circle cx="24" cy="-101.9898" fill="#DD3355" r="3"/>
<circle cx="28.8" cy="-101.98639999999999" fill="#DD3355" r="3"/>
<circle cx="33.6" cy="-101.983" fill="#DD3355" r="3"/>
<circle cx="38.4" cy="-102.2006" fill="#DD3355" r="3"/>
<circle cx="43.2" cy="-102.17" fill="#DD3355" r="3"/>
<circle cx="48" cy="-102.1938" fill="#DD3355" r="3"/>
<circle cx="52.8" cy="-102.2244" fill="#DD3355" r="3"/>
<circle cx="57.6" cy="-101.9558" fill="#DD3355" r="3"/>
<circle cx="62.4" cy="-101.9796" fill="#DD3355" r="3"/>
<circle cx="67.2" cy="-101.98639999999999" fill="#DD3355" r="3"/>
<circle cx="72" cy="-101.983" fill="#DD3355" r="3"/>
<circle cx="76.8" cy="-101.8912" fill="#DD3355" r="3"/>
<circle cx="81.6" cy="-101.9116" fill="#DD3355" r="3"/>
<circle cx="86.4" cy="-102.04759999999999" fill="#DD3355" r="3"/>
<circle cx="91.2" cy="-102.04759999999999" fill="#DD3355" r="3"/>
<circle cx="96" cy="-102.0578" fill="#DD3355" r="3"/>
<circle cx="100.8" cy="-102.0578" fill="#DD3355" r="3"/>
<circle cx="105.6" cy="-102.05099999999999" fill="#DD3355" r="3"/>
<circle cx="110.4" cy="-102.05099999999999" fill="#DD3355" r="3"/>
<circle cx="115.2" cy="-101.94900000000001" fill="#DD3355" r="3"/>
<circle cx="120" cy="-102.09179999999999" fill="#DD3355" r="3"/>
<circle cx="124.8" cy="-102.09179999999999" fill="#DD3355" r="3"/>
<circle cx="129.6" cy="-102.97919999999999" fill="#DD3355" r="3"/>
<circle cx="134.4" cy="-108.7252" fill="#DD3355" r="3"/>
<circle cx="139.2" cy="-102.05099999999999" fill="#DD3355" r="3"/>
<circle cx="144" cy="-102.04759999999999" fill="#DD3355" r="3"/>
<circle cx="148.8" cy="-101.915" fill="#DD3355" r="3"/>
<circle cx="153.6" cy="-102.2006" fill="#DD3355" r="3"/>
<circle cx="158.4" cy="-102.0204" fill="#DD3355" r="3"/>
<circle cx="163.2" cy="-102.0204" fill="#DD3355" r="3"/>
<circle cx="168" cy="-101.9898" fill="#DD3355" r="3"/>
<circle cx="172.8" cy="-102.187" fill="#DD3355" r="3"/>
<circle cx="177.6" cy="-102.2278" fill="#DD3355" r="3"/>
<circle cx="182.4" cy="-101.9898" fill="#DD3355" r="3"/>
<circle cx="187.2" cy="-101.9558" fill="#DD3355" r="3"/>
<circle cx="192" cy="-102.01360000000001" fill="#DD3355" r="3"/>
<circle cx="196.8" cy="-101.94900000000001" fill="#DD3355" r="3"/>
<circle cx="201.6" cy="-101.94900000000001" fill="#DD3355" r="3"/>
<circle cx="206.4" cy="-101.9898" fill="#DD3355" r="3"/>
<circle cx="211.2" cy="-101.94559999999998" fill="#DD3355" r="3"/>
<circle cx="216" cy="-101.9898" fill="#DD3355" r="3"/>
<circle cx="220.8" cy="-102.187" fill="#DD3355" r="3"/>
<circle cx="225.6" cy="-102.1904" fill="#DD3355" r="3"/>
<circle cx="230.4" cy="-102.01360000000001" fill="#DD3355" r="3"/>
<circle cx="235.2" cy="-101.98639999999999" fill="#DD3355" r="3"/>
<circle cx="240" cy="-101.98639999999999" fill="#DD3355" r="3"/>
<circle cx="244.8" cy="-102.02380000000001" fill="#DD3355" r="3"/>
<circle cx="249.6" cy="-102.21759999999999" fill="#DD3355" r="3"/>
<circle cx="254.4" cy="-102.4658" fill="#DD3355" r="3"/>
<circle cx="259.2" cy="-102.3366" fill="#DD3355" r="3"/>
<circle cx="264" cy="-102.31280000000001" fill="#DD3355" r="3"/>
<circle cx="268.8" cy="-102.425" fill="#DD3355" r="3"/>
<circle cx="273.6" cy="-102.37740000000001" fill="#DD3355" r="3"/>
<circle cx="278.4" cy="-102.38419999999999" fill="#DD3355" r="3"/>
<circle cx="283.2" cy="-102.37740000000001" fill="#DD3355" r="3"/>
<circle cx="288" cy="-102.30599999999998" fill="#DD3355" r="3"/>
<circle cx="292.8" cy="-102.408" fill="#DD3355" r="3"/>
<circle cx="297.6" cy="-102.3332" fill="#DD3355" r="3"/>
<circle cx="302.4" cy="-102.3366" fill="#DD3355" r="3"/>
<circle cx="307.2" cy="-102.58820000000001" fill="#DD3355" r="3"/>
<circle cx="312" cy="-102.34339999999999" fill="#DD3355" r="3"/>
<circle cx="316.8" cy="-102.31280000000001" fill="#DD3355" r="3"/>
<circle cx="321.6" cy="-102.38080000000001" fill="#DD3355" r="3"/>
<circle cx="326.4" cy="-103.1492" fill="#DD3355" r="3"/>
<circle cx="331.2" cy="-102.408" fill="#DD3355" r="3"/>
<circle cx="336" cy="-102.38419999999999" fill="#DD3355" r="3"/>
<circle cx="340.8" cy="-102.38080000000001" fill="#DD3355" r="3"/>
<circle cx="345.6" cy="-102.3706" fill="#DD3355" r="3"/>
<circle cx="350.4" cy="-102.3536" fill="#DD3355" r="3"/>
<circle cx="355.2" cy="-102.38419999999999" fill="#DD3355" r="3"/>
<circle cx="360" cy="-102.34339999999999" fill="#DD3355" r="3"/>
<circle cx="364.8" cy="-102.3944" fill="#DD3355" r="3"/>
<circle cx="369.6" cy="-102.34" fill="#DD3355" r="3"/>
<circle cx="374.4" cy="-102.38759999999999" fill="#DD3355" r="3"/>
<circle cx="379.2" cy="-102.37740000000001" fill="#DD3355" r="3"/>
<circle cx="384" cy="-102.37740000000001" fill="#DD3355" r="3"/>
<circle cx="388.8" cy="-102.37400000000001" fill="#DD3355" r="3"/>
<circle cx="393.6" cy="-102.39099999999999" fill="#DD3355" r="3"/>
<circle cx="398.4" cy="-102.3366" fill="#DD3355" r="3"/>
<circle cx="403.2" cy="-102.43179999999998" fill="#DD3355" r="3"/>
<circle cx="408" cy="-102.34" fill="#DD3355" r="3"/>
<circle cx="412.8" cy="-102.3502" fill="#DD3355" r="3"/>
<circle cx="417.6" cy="-102.38080000000001" fill="#DD3355" r="3"/>
<circle cx="422.4" cy="-102.3706" fill="#DD3355" r="3"/>
<circle cx="427.2" cy="-102.38759999999999" fill="#DD3355" r="3"/>
<circle cx="432" cy="-102.38419999999999" fill="#DD3355" r="3"/>
<circle cx="436.8" cy="-102.34339999999999" fill="#DD3355" r="3"/>
<circle cx="441.6" cy="-102.4284" fill="#DD3355" r="3"/>
<circle cx="446.4" cy="-102.34" fill="#DD3355" r="3"/>
<circle cx="451.2" cy="-102.38419999999999" fill="#DD3355" r="3"/>
<circle cx="456" cy="-102.37740000000001" fill="#DD3355" r="3"/>
<circle cx="460.8" cy="-102.34339999999999" fill="#DD3355" r="3"/>
<circle cx="465.6" cy="-102.37400000000001" fill="#DD3355" r="3"/>
<circle cx="470.4" cy="-102.39099999999999" fill="#DD3355" r="3"/>
<circle cx="475.2" cy="-102.3366" fill="#DD3355" r="3"/>
</g>
</g>
<g>
<g>
<circle cx="0" cy="-0" fill="#0000ff" r="3"/>
<circle cx="0" cy="-22.2428" fill="#0000ff" r="3"/>
<circle cx="4.8" cy="-21.5866" fill="#0000ff" r="3"/>
<circle cx="9.6" cy="-21.6614" fill="#0000ff" r="3"/>
<circle cx="14.4" cy="-21.491400000000002" fill="#0000ff" r="3"/>
<circle cx="19.2" cy="-21.6988" fill="#0000ff" r="3"/>
<circle cx="24" cy="-21.6614" fill="#0000ff" r="3"/>
<circle cx="28.8" cy="-21.494799999999998" fill="#0000ff" r="3"/>
<circle cx="33.6" cy="-21.5254" fill="#0000ff" r="3"/>
<circle cx="38.4" cy="-21.5424" fill="#0000ff" r="3"/>
<circle cx="43.2" cy="-21.610400000000002" fill="#0000ff" r="3"/>
<circle cx="48" cy="-21.4574" fill="#0000ff" r="3"/>
<circle cx="52.8" cy="-21.491400000000002" fill="#0000ff" r="3"/>
<circle cx="57.6" cy="-21.7362" fill="#0000ff" r="3"/>
<circle cx="62.4" cy="-21.7362" fill="#0000ff" r="3"/>
<circle cx="67.2" cy="-21.7022" fill="#0000ff" r="3"/>
<circle cx="72" cy="-21.7294" fill="#0000ff" r="3"/>
<circle cx="76.8" cy="-21.7362" fill="#0000ff" r="3"/>
<circle cx="81.6" cy="-21.668200000000002" fill="#0000ff" r="3"/>
<circle cx="86.4" cy="-21.624" fill="#0000ff" r="3"/>
<circle cx="91.2" cy="-21.624" fill="#0000ff" r="3"/>
<circle cx="96" cy="-21.6308" fill="#0000ff" r="3"/>
<circle cx="100.8" cy="-21.596799999999998" fill="#0000ff" r="3"/>
<circle cx="105.6" cy="-21.596799999999998" fill="#0000ff" r="3"/>
<circle cx="110.4" cy="-21.59" fill="#0000ff" r="3"/>
<circle cx="115.2" cy="-21.6614" fill="#0000ff" r="3"/>
<circle cx="120" cy="-21.6274" fill="#0000ff" r="3"/>
<circle cx="124.8" cy="-21.6342" fill="#0000ff" r="3"/>
<circle cx="129.6" cy="-21.899399999999996" fill="#0000ff" r="3"/>
<circle cx="134.4" cy="-22.9874" fill="#0000ff" r="3"/>
<circle cx="139.2" cy="-21.6002" fill="#0000ff" r="3"/>
<circle cx="144" cy="-21.59" fill="#0000ff" r="3"/>
<circle cx="148.8" cy="-21.668200000000002" fill="#0000ff" r="3"/>
<circle cx="153.6" cy="-21.5628" fill="#0000ff" r="3"/>
<circle cx="158.4" cy="-21.4982" fill="#0000ff" r="3"/>
<circle cx="163.2" cy="-21.6988" fill="#0000ff" r="3"/>
<circle cx="168" cy="-21.695400000000003" fill="#0000ff" r="3"/>
<circle cx="172.8" cy="-21.7328" fill="#0000ff" r="3"/>
<circle cx="177.6" cy="-21.6988" fill="#0000ff" r="3"/>
<circle cx="182.4" cy="-21.695400000000003" fill="#0000ff" r="3"/>
<circle cx="187.2" cy="-21.7362" fill="#0000ff" r="3"/>
<circle cx="192" cy="-21.491400000000002" fill="#0000ff" r="3"/>
<circle cx="196.8" cy="-21.4982" fill="#0000ff" r="3"/>
<circle cx="201.6" cy="-21.488" fill="#0000ff" r="3"/>
<circle cx="206.4" cy="-21.491400000000002" fill="#0000ff" r="3"/>
<circle cx="211.2" cy="-21.7294" fill="#0000ff" r="3"/>
<circle cx="216" cy="-21.7022" fill="#0000ff" r="3"/>
<circle cx="220.8" cy="-21.7022" fill="#0000ff" r="3"/>
<circle cx="225.6" cy="-21.7362" fill="#0000ff" r="3"/>
<circle cx="230.4" cy="-21.695400000000003" fill="#0000ff" r="3"/>
<circle cx="235.2" cy="-21.7022" fill="#0000ff" r="3"/>
<circle cx="240" cy="-21.5254" fill="#0000ff" r="3"/>
<circle cx="244.8" cy="-21.4982" fill="#0000ff" r="3"/>
<circle cx="249.6" cy="-382.2518" fill="#0000ff" r="3"/>
<circle cx="254.4" cy="-21.644399999999997" fill="#0000ff" r="3"/>
<circle cx="259.2" cy="-21.5492" fill="#0000ff" r="3"/>
<circle cx="264" cy="-21.596799999999998" fill="#0000ff" r="3"/>
<circle cx="268.8" cy="-21.6478" fill="#0000ff" r="3"/>
<circle cx="273.6" cy="-21.569599999999998" fill="#0000ff" r="3"/>
<circle cx="278.4" cy="-21.678399999999996" fill="#0000ff" r="3"/>
<circle cx="283.2" cy="-21.6478" fill="#0000ff" r="3"/>
<circle cx="288" cy="-21.5934" fill="#0000ff" r="3"/>
<circle cx="292.8" cy="-21.6478" fill="#0000ff" r="3"/>
<circle cx="297.6" cy="-21.607" fill="#0000ff" r="3"/>
<circle cx="302.4" cy="-21.6342" fill="#0000ff" r="3"/>
<circle cx="307.2" cy="-21.613799999999998" fill="#0000ff" r="3"/>
<circle cx="312" cy="-21.644399999999997" fill="#0000ff" r="3"/>
<circle cx="316.8" cy="-21.641" fill="#0000ff" r="3"/>
<circle cx="321.6" cy="-21.6478" fill="#0000ff" r="3"/>
<circle cx="326.4" cy="-21.726" fill="#0000ff" r="3"/>
<circle cx="331.2" cy="-21.641" fill="#0000ff" r="3"/>
<circle cx="336" cy="-21.644399999999997" fill="#0000ff" r="3"/>
<circle cx="340.8" cy="-21.610400000000002" fill="#0000ff" r="3"/>
<circle cx="345.6" cy="-21.559399999999997" fill="#0000ff" r="3"/>
<circle cx="350.4" cy="-21.644399999999997" fill="#0000ff" r="3"/>
<circle cx="355.2" cy="-21.6376" fill="#0000ff" r="3"/>
<circle cx="360" cy="-21.6512" fill="#0000ff" r="3"/>
<circle cx="364.8" cy="-21.6818" fill="#0000ff" r="3"/>
<circle cx="369.6" cy="-21.644399999999997" fill="#0000ff" r="3"/>
<circle cx="374.4" cy="-21.641" fill="#0000ff" r="3"/>
<circle cx="379.2" cy="-21.6478" fill="#0000ff" r="3"/>
<circle cx="384" cy="-21.556" fill="#0000ff" r="3"/>
<circle cx="388.8" cy="-21.6478" fill="#0000ff" r="3"/>
<circle cx="393.6" cy="-21.6342" fill="#0000ff" r="3"/>
<circle cx="398.4" cy="-21.5866" fill="#0000ff" r="3"/>
<circle cx="403.2" cy="-21.6478" fill="#0000ff" r="3"/>
<circle cx="408" cy="-21.644399999999997" fill="#0000ff" r="3"/>
<circle cx="412.8" cy="-21.675" fill="#0000ff" r="3"/>
<circle cx="417.6" cy="-21.678399999999996" fill="#0000ff" r="3"/>
<circle cx="422.4" cy="-21.5934" fill="#0000ff" r="3"/>
<circle cx="427.2" cy="-21.644399999999997" fill="#0000ff" r="3"/>
<circle cx="432" cy="-21.607" fill="#0000ff" r="3"/>
<circle cx="436.8" cy="-21.6172" fill="#0000ff" r="3"/>
<circle cx="441.6" cy="-21.6478" fill="#0000ff" r="3"/>
<circle cx="446.4" cy="-21.576400000000003" fill="#0000ff" r="3"/>
<circle cx="451.2" cy="-21.641" fill="#0000ff" r="3"/>
<circle cx="456" cy="-21.6818" fill="#0000ff" r="3"/>
<circle cx="460.8" cy="-21.6274" fill="#0000ff" r="3"/>
<circle cx="465.6" cy="-21.6818" fill="#0000ff" r="3"/>
<circle cx="470.4" cy="-21.6376" fill="#0000ff" r="3"/>
<circle cx="475.2" cy="-21.620600000000003" fill="#0000ff" r="3"/>
</g>
</g>
<g>
<g>
<line stroke="black" stroke-width="1" x1="0" x2="0" y1="0" y2="10"/>
<line stroke="black" stroke-width="1" x1="96" x2="96" y1="0" y2="10"/>
<line stroke="black" stroke-width="1" x1="192" x2="192" y1="0" y2="10"/>
<line stroke="black" stroke-width="1" x1="288" x2="288" y1="0" y2="10"/>
<line stroke="black" stroke-width="1" x1="384" x2="384" y1="0" y2="10"/>
<line stroke="black" stroke-width="1" x1="480" x2="480" y1="0" y2="10"/>
</g>
<line stroke="black" stroke-width="1" x1="0" x2="480" y1="0" y2="0"/>
<g>
<text font-size="12" text-anchor="middle" x="0" y="20">
0
</text>
<text font-size="12" text-anchor="middle" x="96" y="20">
20
</text>
<text font-size="12" text-anchor="middle" x="192" y="20">
40
</text>
<text font-size="12" text-anchor="middle" x="288" y="20">
60
</text>
<text font-size="12" text-anchor="middle" x="384" y="20">
80
</text>
<text font-size="12" text-anchor="middle" x="480" y="20">
100
</text>
</g>
<text font-size="12" text-anchor="middle" x="240" y="30">
times
</text>
</g>
<g>
<g>
<line stroke="black" stroke-width="1" x1="0" x2="-10" y1="-0" y2="-0"/>
<line stroke="black" stroke-width="1" x1="0" x2="-10" y1="-68" y2="-68"/>
<line stroke="black" stroke-width="1" x1="0" x2="-10" y1="-136" y2="-136"/>
<line stroke="black" stroke-width="1" x1="0" x2="-10" y1="-204" y2="-204"/>
<line stroke="black" stroke-width="1" x1="0" x2="-10" y1="-272" y2="-272"/>
<line stroke="black" stroke-width="1" x1="0" x2="-10" y1="-340" y2="-340"/>
</g>
<line stroke="black" stroke-width="1" x1="0" x2="0" y1="0" y2="-340"/>
<g>
<text dominant-baseline="middle" font-size="12" text-anchor="end" x="-15" y="-0">
0
</text>
<text dominant-baseline="middle" font-size="12" text-anchor="end" x="-15" y="-68">
200
</text>
<text dominant-baseline="middle" font-size="12" text-anchor="end" x="-15" y="-136">
400
</text>
<text dominant-baseline="middle" font-size="12" text-anchor="end" x="-15" y="-204">
600
</text>
<text dominant-baseline="middle" font-size="12" text-anchor="end" x="-15" y="-272">
800
</text>
<text dominant-baseline="middle" font-size="12" text-anchor="end" x="-15" y="-340">
1000
</text>
</g>
<text font-size="12" text-anchor="middle" transform="rotate(-90 -48 -170)" x="-48" y="-182">
secs(nano)
</text>
</g>
</g>
</svg>